<?xml version="1.0" encoding="UTF-8" standalone="no"?>
<svg
   xmlns:dc="http://purl.org/dc/elements/1.1/"
   xmlns:cc="http://creativecommons.org/ns#"
   xmlns:rdf="http://www.w3.org/1999/02/22-rdf-syntax-ns#"
   xmlns:svg="http://www.w3.org/2000/svg"
   xmlns="http://www.w3.org/2000/svg"
   xmlns:sodipodi="http://sodipodi.sourceforge.net/DTD/sodipodi-0.dtd"
   xmlns:inkscape="http://www.inkscape.org/namespaces/inkscape"
   inkscape:version="1.0 (4035a4f, 2020-05-01)"
   sodipodi:docname="theo_nlo_shg_doppelbrech.svg"
   viewBox="0 0 610.66669 245.33333"
   height="245.33333"
   width="610.66669"
   xml:space="preserve"
   id="svg208"
   version="1.1"><metadata
     id="metadata214"><rdf:RDF><cc:Work
         rdf:about=""><dc:format>image/svg+xml</dc:format><dc:type
           rdf:resource="http://purl.org/dc/dcmitype/StillImage" /><dc:title></dc:title></cc:Work></rdf:RDF></metadata><defs
     id="defs212" /><sodipodi:namedview
     inkscape:current-layer="g216"
     inkscape:window-maximized="0"
     inkscape:window-y="23"
     inkscape:window-x="51"
     inkscape:cy="122.66666"
     inkscape:cx="305.33334"
     inkscape:zoom="1.5115134"
     showgrid="false"
     id="namedview210"
     inkscape:window-height="796"
     inkscape:window-width="1389"
     inkscape:pageshadow="2"
     inkscape:pageopacity="0"
     guidetolerance="10"
     gridtolerance="10"
     objecttolerance="10"
     borderopacity="1"
     bordercolor="#666666"
     pagecolor="#ffffff" /><g
     transform="matrix(1.3333333,0,0,-1.3333333,0,245.33333)"
     inkscape:label="theo_nlo_shg_doppelbrech"
     inkscape:groupmode="layer"
     id="g216"><text
       y="-1.6619892"
       x="313.82693"
       id="text220"
       style="font-variant:normal;font-weight:normal;font-size:9.97194px;font-family:Arial;-inkscape-font-specification:Arial;writing-mode:lr-tb;fill:#231f20;fill-opacity:1;fill-rule:nonzero;stroke:none;stroke-width:0.996396"
       transform="scale(0.99639643,-1.0036166)"><tspan
         style="stroke-width:0.996396"
         id="tspan218"
         sodipodi:role="line"
         y="-1.6619892"
         x="313.82693">wavelength</tspan></text><text
       id="text232"
       style="font-variant:normal;font-weight:normal;font-size:10.008px;font-family:Arial;-inkscape-font-specification:Arial;writing-mode:lr-tb;fill:#231f20;fill-opacity:1;fill-rule:nonzero;stroke:none"
       transform="matrix(0.99280576,0,0,-1,365.76,1.668)"><tspan
         id="tspan230"
         sodipodi:role="line"
         y="0"
         x="0 3.3356664">(µ</tspan></text><text
       id="text236"
       style="font-variant:normal;font-weight:normal;font-size:10.008px;font-family:Arial;-inkscape-font-specification:Arial;writing-mode:lr-tb;fill:#231f20;fill-opacity:1;fill-rule:nonzero;stroke:none"
       transform="matrix(0.99280576,0,0,-1,374.832,1.668)"><tspan
         id="tspan234"
         y="0"
         x="0">m</tspan></text><text
       id="text240"
       style="font-variant:normal;font-weight:normal;font-size:10.008px;font-family:Arial;-inkscape-font-specification:Arial;writing-mode:lr-tb;fill:#231f20;fill-opacity:1;fill-rule:nonzero;stroke:none"
       transform="matrix(0.99280576,0,0,-1,383.112,1.668)"><tspan
         id="tspan238"
         y="0"
         x="0">)</tspan></text><text
       id="text244"
       style="font-variant:normal;font-weight:normal;font-size:10.008px;font-family:Arial;-inkscape-font-specification:Arial;writing-mode:lr-tb;fill:#231f20;fill-opacity:1;fill-rule:nonzero;stroke:none"
       transform="matrix(0,0.99280576,1,0,210.96,70.932)"><tspan
         id="tspan242"
         sodipodi:role="line"
         y="0"
         x="0">index of refraction</tspan></text><text
       id="text266"
       style="font-variant:normal;font-weight:normal;font-size:10.008px;font-family:Arial;-inkscape-font-specification:Arial;writing-mode:lr-tb;fill:#231f20;fill-opacity:1;fill-rule:nonzero;stroke:none"
       transform="matrix(0.99280576,0,0,-1,296.82,127.956)" /><text
       id="text326"
       style="font-variant:normal;font-weight:normal;font-size:10.008px;font-family:Arial;-inkscape-font-specification:Arial;writing-mode:lr-tb;fill:#231f20;fill-opacity:1;fill-rule:nonzero;stroke:none"
       transform="matrix(0.99280576,0,0,-1,429.336,165.792)"><tspan
         id="tspan304"
         sodipodi:role="line"
         y="0"
         x="0 6.7083626 13.380696">BBO</tspan><tspan
         id="tspan306"
         sodipodi:role="line"
         y="149.29234"
         x="-198.38258 -192.79811 -190.00589">0.3</tspan><tspan
         id="tspan308"
         sodipodi:role="line"
         y="149.40042"
         x="-167.92323 -162.33876 -159.54654 -137.39082 -131.80637 -129.01413 -106.93148 -101.34702 -98.554779">0.40.50.6</tspan><tspan
         id="tspan310"
         sodipodi:role="line"
         y="149.29234"
         x="-76.508156 -70.923691 -68.131462">0.7</tspan><tspan
         id="tspan312"
         sodipodi:role="line"
         y="149.32837"
         x="-46.120869 -40.536404 -37.744171">0.8</tspan><tspan
         id="tspan314"
         sodipodi:role="line"
         y="149.40042"
         x="-15.661519 -10.077055 -7.2848234">0.9</tspan><tspan
         id="tspan316"
         sodipodi:role="line"
         y="149.29234"
         x="14.833858 20.418322 23.210554">1.0</tspan><tspan
         id="tspan318"
         sodipodi:role="line"
         y="139.06818"
         x="-213.06532 -207.48085 -204.68861">1.5</tspan><tspan
         id="tspan320"
         sodipodi:role="line"
         y="91.836411"
         x="-213.06532 -207.48085 -204.68861">1.6</tspan><tspan
         id="tspan322"
         sodipodi:role="line"
         y="39.132282"
         x="-213.06532 -207.48085 -204.68861">1.7</tspan><tspan
         id="tspan324"
         sodipodi:role="line"
         y="-8.892108"
         x="-213.06532 -207.48085 -204.68861">1.8</tspan></text><path
       id="path328"
       style="fill:none;stroke:#231f20;stroke-width:1.001;stroke-linecap:square;stroke-linejoin:bevel;stroke-miterlimit:10;stroke-dasharray:none;stroke-opacity:1"
       d="m 235.98,27.156 v 3.132 m 15.732,-3.132 v 1.584 m 15.66,-1.584 v 3.132 m 15.696,-3.132 V 28.74 M 298.8,27.156 v 3.132 m 15.696,-3.132 v 1.584 m 15.696,-1.584 v 3.132 m 15.732,-3.132 v 1.584 m 15.696,-1.584 v 3.132 m 15.696,-3.132 v 1.584 m 15.66,-1.584 v 3.132 m 15.732,-3.132 v 1.584 m 15.732,-1.584 v 3.132 m 15.66,-3.132 v 1.584 m 15.732,-1.584 v 3.132 M 235.98,27.156 h 219.852 m -219.852,0 h 2.916 m -2.916,25.452 h 1.476 m -1.476,25.416 h 2.916 m -2.916,25.488 h 1.476 m -1.476,25.416 h 2.916 m -2.916,25.488 h 1.476 m -1.476,25.416 h 2.916 M 235.98,27.156 v 152.676 m 0,0 V 176.7 m 15.732,3.132 v -1.584 m 15.66,1.584 V 176.7 m 15.696,3.132 v -1.584 m 15.732,1.584 V 176.7 m 15.696,3.132 v -1.584 m 15.696,1.584 V 176.7 m 15.732,3.132 v -1.584 m 15.696,1.584 V 176.7 m 15.696,3.132 v -1.584 m 15.66,1.584 V 176.7 m 15.732,3.132 v -1.584 m 15.732,1.584 V 176.7 m 15.66,3.132 v -1.584 m 15.732,1.584 V 176.7 m -219.852,3.132 h 219.852 m 0,-152.676 v 152.676" /><path
       id="path330"
       style="fill:none;stroke:#231f20;stroke-width:1.5;stroke-linecap:round;stroke-linejoin:round;stroke-miterlimit:10;stroke-dasharray:none;stroke-opacity:1"
       d="m 235.98,150.924 6.264,-7.2 6.3,-5.544 6.264,-4.356 6.3,-3.564 6.264,-2.916 6.3,-2.448 6.3,-2.016 6.264,-1.728 6.264,-1.512 6.3,-1.332 6.264,-1.152 6.264,-1.044 6.264,-0.9 6.336,-0.792 6.264,-0.72 6.264,-0.648 6.3,-0.648 6.3,-0.54 6.264,-0.468 6.3,-0.504 6.264,-0.396 6.3,-0.432 6.264,-0.36 6.264,-0.288 6.264,-0.36 6.336,-0.324 6.264,-0.288 6.264,-0.288 6.264,-0.252 6.336,-0.252 6.264,-0.288 6.264,-0.216 6.264,-0.216 6.336,-0.216 6.264,-0.18 M 235.98,79.212 l 6.264,-4.86 6.3,-3.816 6.264,-2.988 6.3,-2.484 6.264,-1.98 6.3,-1.728 6.3,-1.404 6.264,-1.224 6.264,-1.044 6.3,-0.972 6.264,-0.828 6.264,-0.72 6.264,-0.648 6.336,-0.576 12.528,-1.008 6.3,-0.432 6.3,-0.396 6.264,-0.396 6.3,-0.324 6.264,-0.36 6.3,-0.288 6.264,-0.324 12.528,-0.504 6.336,-0.288 6.264,-0.216 6.264,-0.216 6.264,-0.216 6.336,-0.252 6.264,-0.18 6.264,-0.216 6.264,-0.18 6.336,-0.18 6.264,-0.216" /><path
       id="path332"
       style="fill:none;stroke:#231f20;stroke-width:1.001;stroke-linecap:square;stroke-linejoin:bevel;stroke-miterlimit:10;stroke-dasharray:none;stroke-opacity:1"
       d="m 235.98,129.468 1.512,-1.548" /><path
       id="path334"
       style="fill:none;stroke:#231f20;stroke-width:1.001;stroke-linecap:square;stroke-linejoin:bevel;stroke-miterlimit:10;stroke-dasharray:4.014, 2.007;stroke-dashoffset:0;stroke-opacity:1"
       d="m 236.448,129.324 6.264,-6.444 6.336,-4.968 6.264,-3.924 6.264,-3.204 6.264,-2.592 6.3,-2.196 6.3,-1.836 6.264,-1.548 6.264,-1.368 6.336,-1.188 6.264,-1.008 6.264,-0.936 6.264,-0.792 6.3,-0.72 6.264,-0.648 6.264,-0.576 6.3,-0.576 6.3,-0.504 6.264,-0.396 6.3,-0.468 6.264,-0.36 6.3,-0.36 6.264,-0.324 6.3,-0.288 6.264,-0.324 6.3,-0.288 18.792,-0.756 6.336,-0.18 6.264,-0.252 6.264,-0.216 6.3,-0.216 6.3,-0.18 6.264,-0.18" /><path
       id="path336"
       style="fill:none;stroke:#231f20;stroke-width:0.7;stroke-linecap:square;stroke-linejoin:bevel;stroke-miterlimit:10;stroke-dasharray:0.703, 1.406;stroke-dashoffset:0;stroke-opacity:1"
       d="M 392.4,27.552 V 177.096 M 267.264,28.74 v 149.544 m -13.356,-69.66 h 177.048" /><path
       id="path338"
       style="fill:none;stroke:#231f20;stroke-width:1.001;stroke-linecap:square;stroke-linejoin:bevel;stroke-miterlimit:10;stroke-dasharray:none;stroke-opacity:1"
       d="M 44.064,114.708 V 64.56" /><path
       id="path340"
       style="fill:#231f20;fill-opacity:1;fill-rule:evenodd;stroke:none"
       d="m 46.8,112.8 h -5.436 v 0.072 l 2.7,2.7 2.736,-2.7" /><path
       id="path342"
       style="fill:#231f20;fill-opacity:1;fill-rule:evenodd;stroke:#231f20;stroke-width:1.001;stroke-linecap:square;stroke-linejoin:bevel;stroke-miterlimit:10;stroke-dasharray:none;stroke-opacity:1"
       d="m 46.332,113.304 -2.268,4.5 -2.232,-4.5 2.232,2.268 z" /><path
       id="path344"
       style="fill:#231f20;fill-opacity:1;fill-rule:evenodd;stroke:none"
       d="m 46.8,66.432 h -5.436 v -0.036 l 2.7,-2.7 2.736,2.7" /><path
       id="path346"
       style="fill:#231f20;fill-opacity:1;fill-rule:evenodd;stroke:#231f20;stroke-width:1.001;stroke-linecap:square;stroke-linejoin:bevel;stroke-miterlimit:10;stroke-dasharray:none;stroke-opacity:1"
       d="m 46.332,65.964 -2.268,-4.5 -2.232,4.5 2.232,-2.268 z" /><path
       id="path348"
       style="fill:none;stroke:#231f20;stroke-width:1.001;stroke-linecap:square;stroke-linejoin:bevel;stroke-miterlimit:10;stroke-dasharray:none;stroke-opacity:1"
       d="m 30.564,73.56 27.432,27" /><path
       id="path350"
       style="fill:#231f20;fill-opacity:1;fill-rule:evenodd;stroke:none"
       d="m 29.988,76.836 3.852,-3.888 -0.036,-0.036 -3.852,0.036 V 76.8" /><path
       id="path352"
       style="fill:#231f20;fill-opacity:1;fill-rule:evenodd;stroke:#231f20;stroke-width:1.001;stroke-linecap:square;stroke-linejoin:bevel;stroke-miterlimit:10;stroke-dasharray:none;stroke-opacity:1"
       d="M 29.988,76.152 28.368,71.4 33.12,72.948 H 29.952 Z" /><path
       id="path354"
       style="fill:#231f20;fill-opacity:1;fill-rule:evenodd;stroke:none"
       d="m 54.72,101.172 3.816,-3.852 0.036,0.036 0.036,3.816 -3.852,0.036" /><path
       id="path356"
       style="fill:#231f20;fill-opacity:1;fill-rule:evenodd;stroke:#231f20;stroke-width:1.001;stroke-linecap:square;stroke-linejoin:bevel;stroke-miterlimit:10;stroke-dasharray:none;stroke-opacity:1"
       d="m 55.404,101.208 4.788,1.548 -1.62,-4.752 0.036,3.168 z" /><path
       id="path358"
       style="fill:none;stroke:#231f20;stroke-width:1.001;stroke-linecap:square;stroke-linejoin:bevel;stroke-miterlimit:10;stroke-dasharray:1.003, 2.007;stroke-dashoffset:0;stroke-opacity:1"
       d="M 14.688,86.052 H 99.036" /><path
       id="path360"
       style="fill:#231f20;fill-opacity:1;fill-rule:evenodd;stroke:#231f20;stroke-width:1.001;stroke-linecap:square;stroke-linejoin:bevel;stroke-miterlimit:10;stroke-dasharray:none;stroke-opacity:1"
       d="m 93.996,88.32 4.5,-2.268 -4.5,-2.232 z" /><text
       id="text368"
       style="font-variant:normal;font-weight:normal;font-size:10.008px;font-family:Arial;-inkscape-font-specification:Arial;writing-mode:lr-tb;fill:#231f20;fill-opacity:1;fill-rule:nonzero;stroke:none"
       transform="matrix(0.99280576,0,0,-1,91.692,129.468)"><tspan
         y="0"
         id="tspan364"
         sodipodi:role="line"
         x="0">optical crystal axis</tspan><tspan
         y="12.51"
         x="0"
         id="tspan366"
         sodipodi:role="line" /></text><text
       id="text374"
       style="font-variant:normal;font-weight:normal;font-size:10.008px;font-family:Arial;-inkscape-font-specification:Arial;writing-mode:lr-tb;fill:#231f20;fill-opacity:1;fill-rule:nonzero;stroke:none"
       transform="matrix(0.98201439,0,0,-1,32.652,107.184)"><tspan
         id="tspan370"
         y="0"
         x="0">o</tspan><tspan
         id="tspan372"
         sodipodi:role="line"
         y="16.055834"
         x="24.671722 30.244177">eo</tspan></text><text
       id="text380"
       style="font-variant:normal;font-weight:normal;font-size:10.008px;font-family:Arial;-inkscape-font-specification:Arial;writing-mode:lr-tb;fill:#231f20;fill-opacity:1;fill-rule:nonzero;stroke:none"
       transform="matrix(0.99280576,0,0,-1,-0.54,128.712)"><tspan
         y="0"
         x="0"
         id="tspan378"
         sodipodi:role="line">polarization</tspan><tspan
         id="tspan420"
         y="12.51"
         x="0"
         sodipodi:role="line">vector</tspan></text><path
       id="path382"
       style="fill:#ffffff;fill-opacity:1;fill-rule:evenodd;stroke:#231f20;stroke-width:1.001;stroke-linecap:square;stroke-linejoin:bevel;stroke-miterlimit:10;stroke-dasharray:none;stroke-opacity:1"
       d="m 86.508,106.176 -11.304,-31.932 31.608,-11.448 11.772,8.676 10.008,28.152 -27.9,10.08 z" /><path
       id="path384"
       style="fill:none;stroke:#231f20;stroke-width:1.001;stroke-linecap:square;stroke-linejoin:bevel;stroke-miterlimit:10;stroke-dasharray:none;stroke-opacity:1"
       d="m 128.592,99.624 -10.44,-4.86 -31.644,11.412 14.184,3.528 27.9,-10.08 -10.008,-28.152 -11.772,-8.676 m -20.304,43.38 -11.304,-31.932 31.608,-11.448 11.34,31.968 -31.644,11.412 m 6.66,18.828 -11.34,-31.932" /><path
       id="path386"
       style="fill:#231f20;fill-opacity:1;fill-rule:evenodd;stroke:#231f20;stroke-width:1.001;stroke-linecap:square;stroke-linejoin:bevel;stroke-miterlimit:10;stroke-dasharray:none;stroke-opacity:1"
       d="m 93.456,122.628 -0.288,2.376 -1.728,-1.656 1.368,0.648 z" /><path
       id="path388"
       style="fill:none;stroke:#231f20;stroke-width:1.001;stroke-linecap:square;stroke-linejoin:bevel;stroke-miterlimit:10;stroke-dasharray:none;stroke-opacity:1"
       d="m 88.164,100.92 c 3.96,1.332 8.1,-0.756 9.252,-4.68 C 98.568,92.316 96.3,88.068 92.34,86.7" /><path
       id="path390"
       style="fill:#231f20;fill-opacity:1;fill-rule:evenodd;stroke:#231f20;stroke-width:1.001;stroke-linecap:square;stroke-linejoin:bevel;stroke-miterlimit:10;stroke-dasharray:none;stroke-opacity:1"
       d="M 97.308,86.016 92.34,86.7 95.868,90.264 Z" /><path
       id="path392"
       style="fill:none;stroke:#231f20;stroke-width:1.001;stroke-linecap:square;stroke-linejoin:bevel;stroke-miterlimit:10;stroke-dasharray:1.003, 2.007;stroke-dashoffset:0;stroke-opacity:1"
       d="M 120.384,85.656 182.628,85.62" /><path
       id="path394"
       style="fill:#231f20;fill-opacity:1;fill-rule:evenodd;stroke:#231f20;stroke-width:1.001;stroke-linecap:square;stroke-linejoin:bevel;stroke-miterlimit:10;stroke-dasharray:none;stroke-opacity:1"
       d="m 177.588,87.888 4.5,-2.268 -4.5,-2.232 z" /><text
       y="-71.156258"
       x="132.36049"
       transform="scale(0.99639641,-1.0036166)"
       style="font-variant:normal;font-weight:normal;font-size:9.97194px;font-family:Arial;-inkscape-font-specification:Arial;writing-mode:lr-tb;fill:#231f20;fill-opacity:1;fill-rule:nonzero;stroke:none;stroke-width:0.996396"
       id="text428"><tspan
         style="stroke-width:0.996396"
         sodipodi:role="line"
         id="tspan422"
         x="132.36049"
         y="-71.156258">propagation</tspan><tspan
         style="stroke-width:0.996396"
         x="132.36049"
         sodipodi:role="line"
         id="tspan424"
         y="-58.69133" /><tspan
         style="stroke-width:0.996396"
         sodipodi:role="line"
         id="tspan426"
         x="132.36049"
         y="-46.226406" /></text><text
       transform="scale(1,-1)"
       id="text434"
       y="-91.212196"
       x="91.795418"
       style="font-size:9px;line-height:1.25;font-family:sans-serif;text-align:end;text-anchor:end;stroke-width:0.75"
       xml:space="preserve"><tspan
         style="stroke-width:0.75"
         y="-91.212196"
         x="91.795418"
         id="tspan432"
         sodipodi:role="line">θ</tspan></text><text
       style="font-size:9.7px"
       transform="scale(1,-1)"
       id="text438"
       y="-82.776947"
       x="276.87482"
       xml:space="preserve"><tspan
         style="font-size:9.7px;baseline-shift:baseline;stroke-width:0.75"
         y="-82.776947"
         x="276.87482"
         id="tspan436"
         sodipodi:role="line">n<tspan
   id="tspan448"
   style="font-size:9.7px;baseline-shift:sub">eo</tspan>(θ=30°)</tspan></text><text
       xml:space="preserve"
       x="277.86719"
       y="-129.41895"
       id="text457"
       transform="scale(1,-1)"
       style="font-size:9.7px"><tspan
         sodipodi:role="line"
         id="tspan455"
         x="277.86719"
         y="-129.41895"
         style="font-size:9.7px;baseline-shift:baseline;stroke-width:0.75">n<tspan
   style="font-size:9.7px;baseline-shift:sub"
   id="tspan453">o</tspan></tspan></text><text
       xml:space="preserve"
       x="276.37863"
       y="-47.547356"
       id="text463"
       transform="scale(1,-1)"
       style="font-size:9.7px"><tspan
         sodipodi:role="line"
         id="tspan461"
         x="276.37863"
         y="-47.547356"
         style="font-size:9.7px;baseline-shift:baseline;stroke-width:0.75">n<tspan
   style="font-size:9.7px;baseline-shift:sub"
   id="tspan459">eo</tspan></tspan></text></g></svg>
