<?xml version="1.0" encoding="UTF-8" standalone="no"?>
<svg
   xmlns:dc="http://purl.org/dc/elements/1.1/"
   xmlns:cc="http://creativecommons.org/ns#"
   xmlns:rdf="http://www.w3.org/1999/02/22-rdf-syntax-ns#"
   xmlns:svg="http://www.w3.org/2000/svg"
   xmlns="http://www.w3.org/2000/svg"
   xmlns:sodipodi="http://sodipodi.sourceforge.net/DTD/sodipodi-0.dtd"
   xmlns:inkscape="http://www.inkscape.org/namespaces/inkscape"
   inkscape:version="1.0 (4035a4f, 2020-05-01)"
   sodipodi:docname="theo_nlo_nl_polarisation.svg"
   viewBox="0 0 605.33331 160"
   height="160"
   width="605.33331"
   xml:space="preserve"
   id="svg50"
   version="1.1"><metadata
     id="metadata56"><rdf:RDF><cc:Work
         rdf:about=""><dc:format>image/svg+xml</dc:format><dc:type
           rdf:resource="http://purl.org/dc/dcmitype/StillImage" /><dc:title></dc:title></cc:Work></rdf:RDF></metadata><defs
     id="defs54" /><sodipodi:namedview
     inkscape:current-layer="g58"
     inkscape:window-maximized="0"
     inkscape:window-y="23"
     inkscape:window-x="51"
     inkscape:cy="80.940116"
     inkscape:cx="461.07046"
     inkscape:zoom="0.93303299"
     showgrid="false"
     id="namedview52"
     inkscape:window-height="855"
     inkscape:window-width="1377"
     inkscape:pageshadow="2"
     inkscape:pageopacity="0"
     guidetolerance="10"
     gridtolerance="10"
     objecttolerance="10"
     borderopacity="1"
     bordercolor="#666666"
     pagecolor="#ffffff" /><g
     transform="matrix(1.3333333,0,0,-1.3333333,0,160)"
     inkscape:label="theo_nlo_nl_polarisation"
     inkscape:groupmode="layer"
     id="g58"><path
       id="path60"
       style="fill:none;stroke:#231f20;stroke-width:1.001;stroke-linecap:square;stroke-linejoin:bevel;stroke-miterlimit:10;stroke-dasharray:1.003, 2.007;stroke-dashoffset:0;stroke-opacity:1"
       d="m 312.216,60.416 1.26,5.796 1.188,5.688 1.26,5.436 1.224,5.22 1.224,4.896 1.26,4.428 1.188,3.96 1.26,3.348 1.26,2.7 1.188,2.052 1.26,1.368 1.26,0.684 1.188,-0.072 1.26,-0.864 1.224,-1.512 1.224,-2.232 1.26,-2.916 1.188,-3.492 1.26,-4.032 1.224,-4.536 1.224,-4.968 1.26,-5.256 1.26,-5.544 1.188,-5.724 1.26,-5.76 2.412,-11.412 1.26,-5.472 1.224,-5.148 1.26,-4.752 1.224,-4.284 1.188,-3.816 1.26,-3.168 1.26,-2.664 1.224,-1.836 1.224,-1.188 1.26,-0.504 1.188,0.252 1.26,0.972 1.224,1.728 1.26,2.376 1.224,3.024 1.188,3.636 1.26,4.248 1.26,4.572 1.188,5.112 1.26,5.328 1.26,5.616 1.188,5.652 1.26,5.832 1.188,5.724 1.26,5.616 1.26,5.328 1.188,5.112 1.26,4.68 1.26,4.14 1.188,3.708 1.26,3.024 1.26,2.448 1.188,1.764 1.26,1.008 1.188,0.324 1.26,-0.468 1.26,-1.188 1.188,-1.836 1.26,-2.592 1.26,-3.168 1.188,-3.744 1.26,-4.284 1.224,-4.752 1.224,-5.148 1.26,-5.4 1.188,-5.616 1.26,-5.76 1.26,-5.796 1.188,-5.724 1.26,-5.544 1.26,-5.292 1.188,-5.004 1.26,-4.536 1.224,-4.104 1.224,-3.492 1.224,-2.916 1.224,-2.304 1.26,-1.512 1.224,-0.864 1.224,-0.144 1.224,0.612 1.26,1.332 1.224,2.016 1.26,2.7 1.224,3.312 1.188,3.888 1.26,4.428 1.224,4.896 1.26,5.22 1.224,5.436 1.188,5.688 1.26,5.76" /><path
       id="path62"
       style="fill:none;stroke:#918f90;stroke-width:1.5;stroke-linecap:round;stroke-linejoin:round;stroke-miterlimit:10;stroke-dasharray:none;stroke-opacity:1"
       d="m 312.216,60.416 1.26,3.96 1.188,3.672 1.26,3.384 1.26,3.024 1.188,2.628 1.26,2.34 1.188,1.944 1.26,1.62 1.26,1.152 1.188,0.936 1.26,0.612 1.26,0.252 h 1.188 l 1.26,-0.396 1.224,-0.684 1.224,-0.972 1.26,-1.332 1.188,-1.62 1.26,-2.052 1.224,-2.376 1.224,-2.772 1.26,-3.096 1.26,-3.42 1.188,-3.78 1.26,-3.96 1.224,-4.212 1.188,-4.284 1.26,-4.284 1.224,-4.284 1.26,-4.104 1.224,-3.816 1.188,-3.456 1.26,-2.952 1.26,-2.52 1.224,-1.764 1.224,-1.188 1.26,-0.468 1.188,0.252 1.26,0.936 1.224,1.656 1.26,2.304 1.224,2.844 1.188,3.348 1.26,3.708 1.26,3.996 1.224,4.248 1.224,4.284 1.26,4.356 1.188,4.212 1.26,4.032 1.188,3.816 1.26,3.564 1.26,3.168 1.188,2.916 1.26,2.412 1.26,2.196 1.188,1.764 1.26,1.404 1.26,1.116 1.188,0.72 1.26,0.468 1.188,0.072 1.26,-0.144 1.26,-0.504 1.188,-0.792 1.26,-1.152 1.26,-1.512 1.188,-1.836 1.26,-2.196 1.224,-2.556 1.224,-2.916 1.26,-3.276 1.188,-3.564 1.26,-3.888 1.26,-4.104 1.188,-4.212 1.26,-4.356 1.26,-4.284 1.188,-4.212 1.26,-3.96 1.224,-3.636 1.224,-3.312 1.26,-2.7 1.188,-2.16 1.26,-1.512 1.224,-0.9 1.224,-0.108 1.224,0.576 1.26,1.332 1.224,1.98 1.26,2.52 1.224,3.096 1.188,3.564 1.26,3.888 1.224,4.068 1.26,4.32 1.224,4.356 1.188,4.212 1.26,4.14" /><path
       id="path64"
       style="fill:none;stroke:#231f20;stroke-width:1.001;stroke-linecap:square;stroke-linejoin:bevel;stroke-miterlimit:10;stroke-dasharray:none;stroke-opacity:1"
       d="M 295.62,61.46 H 452.544" /><path
       id="path66"
       style="fill:#231f20;fill-opacity:1;fill-rule:evenodd;stroke:#231f20;stroke-width:1.001;stroke-linecap:square;stroke-linejoin:bevel;stroke-miterlimit:10;stroke-dasharray:none;stroke-opacity:1"
       d="m 447.828,63.728 4.5,-2.268 -4.5,-2.232 z" /><path
       id="path68"
       style="fill:none;stroke:#231f20;stroke-width:1.001;stroke-linecap:square;stroke-linejoin:bevel;stroke-miterlimit:10;stroke-dasharray:1.003, 2.007;stroke-dashoffset:0;stroke-opacity:1"
       d="m 139.164,60.416 1.26,5.796 1.188,5.688 1.26,5.472 2.448,10.08 1.26,4.428 1.188,3.96 1.26,3.348 1.26,2.7 1.188,2.052 1.26,1.368 1.26,0.684 1.188,-0.072 1.26,-0.864 1.26,-1.512 1.188,-2.232 1.26,-2.916 1.188,-3.492 1.26,-4.032 1.26,-4.536 1.188,-4.968 1.26,-5.256 1.26,-5.544 1.188,-5.724 1.26,-5.76 1.26,-5.796 1.188,-5.616 1.26,-5.472 1.188,-5.148 1.26,-4.752 1.26,-4.284 1.188,-3.816 1.26,-3.168 1.26,-2.628 1.188,-1.872 1.224,-1.188 1.26,-0.504 1.224,0.252 1.26,0.972 1.188,1.728 1.26,2.376 1.224,3.024 1.224,3.636 1.26,4.248 1.224,4.572 1.224,5.112 1.224,5.328 1.26,5.616 1.224,5.688 1.26,5.796 1.188,5.724 1.224,5.616 1.26,5.328 1.188,5.112 1.296,4.68 1.224,4.14 1.188,3.708 1.26,3.024 1.26,2.448 1.188,1.764 1.26,1.008 1.224,0.324 1.224,-0.468 1.26,-1.188 1.188,-1.836 1.26,-2.592 1.26,-3.168 1.188,-3.744 1.26,-4.284 1.26,-4.752 1.188,-5.148 1.26,-5.4 1.188,-5.616 1.26,-5.76 1.26,-5.796 1.188,-5.724 1.26,-5.544 1.26,-5.292 1.188,-5.004 1.26,-4.536 1.26,-4.104 1.188,-3.492 1.26,-2.916 1.188,-2.304 1.26,-1.512 1.26,-0.864 1.188,-0.144 1.26,0.612 1.26,1.332 1.188,2.016 1.26,2.736 1.26,3.276 1.188,3.888 1.26,4.428 1.188,4.896 1.26,5.22 1.224,5.436 1.224,5.688 1.26,5.76" /><path
       id="path70"
       style="fill:none;stroke:#231f20;stroke-width:1.001;stroke-linecap:square;stroke-linejoin:bevel;stroke-miterlimit:10;stroke-dasharray:none;stroke-opacity:1"
       d="M 124.548,61.568 H 281.472" /><path
       id="path72"
       style="fill:#231f20;fill-opacity:1;fill-rule:evenodd;stroke:#231f20;stroke-width:1.001;stroke-linecap:square;stroke-linejoin:bevel;stroke-miterlimit:10;stroke-dasharray:none;stroke-opacity:1"
       d="m 276.756,63.836 4.5,-2.268 -4.5,-2.232 z" /><path
       id="path74"
       style="fill:none;stroke:#231f20;stroke-width:1.5;stroke-linecap:round;stroke-linejoin:round;stroke-miterlimit:10;stroke-dasharray:none;stroke-opacity:1"
       d="m 139.164,60.416 1.26,4.068 1.188,3.96 1.26,3.852 1.26,3.636 1.188,3.42 1.26,3.096 1.188,2.772 1.26,2.34 1.26,1.908 1.188,1.44 1.26,0.936 1.26,0.468 1.188,-0.036 1.26,-0.576 1.26,-1.08 1.188,-1.584 1.26,-2.016 1.188,-2.448 1.26,-2.808 1.26,-3.204 1.188,-3.456 1.26,-3.708 1.26,-3.852 1.188,-4.032 2.52,-8.064 1.188,-3.924 1.26,-3.852 1.188,-3.6 1.26,-3.312 1.26,-3.024 1.188,-2.664 1.26,-2.232 1.26,-1.836 1.188,-1.296 1.224,-0.828 1.26,-0.36 1.224,0.18 1.26,0.684 1.188,1.224 1.26,1.656 1.224,2.124 1.224,2.52 1.26,2.952 1.224,3.24 1.224,3.564 1.224,3.744 1.26,3.924 1.224,3.96 1.26,4.068 1.188,4.032 1.224,3.888 1.26,3.744 1.188,3.564 1.296,3.276 1.224,2.916 1.188,2.592 1.26,2.124 1.26,1.692 1.188,1.26 1.26,0.684 1.224,0.252 1.224,-0.324 1.26,-0.828 1.188,-1.296 1.26,-1.8 1.26,-2.232 1.188,-2.628 1.26,-2.988 1.26,-3.348 1.188,-3.6 1.26,-3.78 1.188,-3.924 2.52,-8.064 1.188,-4.032 1.26,-3.888 1.26,-3.672 1.188,-3.528 1.26,-3.168 1.26,-2.88 1.188,-2.448 1.26,-2.016 1.188,-1.62 1.26,-1.08 1.26,-0.576 1.188,-0.108 1.26,0.432 1.26,0.9 1.188,1.44 1.26,1.908 1.26,2.304 1.188,2.7 1.26,3.096 1.188,3.42 1.26,3.672 1.224,3.816 1.224,3.96 1.26,4.032 M 1.392,19.088 c 36.936,27.792 73.908,55.62 110.88,83.448" /><path
       id="path76"
       style="fill:none;stroke:#231f20;stroke-width:1.001;stroke-linecap:square;stroke-linejoin:bevel;stroke-miterlimit:10;stroke-dasharray:none;stroke-opacity:1"
       d="M 1.536,60.74 H 111.984" /><path
       id="path78"
       style="fill:#231f20;fill-opacity:1;fill-rule:evenodd;stroke:#231f20;stroke-width:1.001;stroke-linecap:square;stroke-linejoin:bevel;stroke-miterlimit:10;stroke-dasharray:none;stroke-opacity:1"
       d="m 106.584,62.972 4.5,-2.232 -4.5,-2.268 z" /><path
       id="path80"
       style="fill:none;stroke:#918f90;stroke-width:1.5;stroke-linecap:round;stroke-linejoin:round;stroke-miterlimit:10;stroke-dasharray:none;stroke-opacity:1"
       d="m 0.96,2.636 1.152,1.512 1.08,1.512 1.116,1.404 1.152,1.512 1.08,1.44 1.152,1.44 1.08,1.368 1.116,1.404 1.152,1.368 1.08,1.368 1.116,1.368 1.152,1.368 1.08,1.296 1.116,1.368 1.152,1.296 1.08,1.296 1.152,1.296 1.08,1.224 1.116,1.224 1.152,1.296 1.08,1.224 1.152,1.188 1.116,1.224 1.08,1.152 1.152,1.152 1.116,1.152 1.08,1.188 2.232,2.232 1.152,1.08 2.196,2.196 1.152,1.116 1.116,1.008 1.08,1.044 1.152,1.008 1.116,1.008 1.08,0.972 1.152,1.008 1.08,0.972 1.152,0.936 1.116,0.972 1.116,0.9 1.116,0.936 1.152,0.9 1.08,0.9 1.116,0.864 1.152,0.828 1.08,0.9 1.116,0.792 1.08,0.828 1.152,0.828 1.116,0.792 1.08,0.756 1.152,0.756 3.348,2.268 1.152,0.684 1.08,0.684 1.152,0.684 1.08,0.684 1.116,0.684 1.152,0.576 1.08,0.684 1.116,0.648 1.152,0.576 1.08,0.576 1.152,0.612 1.116,0.54 3.312,1.656 1.116,0.468 1.152,0.468 1.08,0.468 1.116,0.504 1.152,0.468 1.08,0.468 1.152,0.432 2.232,0.792 1.116,0.432 1.08,0.324 1.152,0.36 1.116,0.324 1.08,0.36 1.152,0.324 1.116,0.36 1.08,0.252 1.152,0.288 1.116,0.252 1.08,0.288 1.152,0.216 1.08,0.252 1.152,0.216 1.116,0.216 1.08,0.144 1.152,0.18" /><path
       id="path82"
       style="fill:none;stroke:#231f20;stroke-width:1.001;stroke-linecap:square;stroke-linejoin:bevel;stroke-miterlimit:10;stroke-dasharray:none;stroke-opacity:1"
       d="M 56.256,0.98 V 119.276" /><path
       id="path84"
       style="fill:#231f20;fill-opacity:1;fill-rule:evenodd;stroke:#231f20;stroke-width:1.001;stroke-linecap:square;stroke-linejoin:bevel;stroke-miterlimit:10;stroke-dasharray:none;stroke-opacity:1"
       d="m 53.988,114.38 2.268,4.5 2.232,-4.5 z" /><g
       transform="rotate(-11.874528,212.00706,105.89463)"
       id="g274"><path
         sodipodi:nodetypes="cc"
         d="m 220.416,109.592 18.07992,6.73947"
         style="fill:none;stroke:#231f20;stroke-width:0.7;stroke-linecap:square;stroke-linejoin:bevel;stroke-miterlimit:10;stroke-dasharray:none;stroke-opacity:1"
         id="path96" /><path
         d="m 223.872,113.3 -3.42,-3.672 5.004,-0.54 z"
         style="fill:#231f20;fill-opacity:1;fill-rule:evenodd;stroke:#231f20;stroke-width:0.7;stroke-linecap:square;stroke-linejoin:bevel;stroke-miterlimit:10;stroke-dasharray:none;stroke-opacity:1"
         id="path98" /></g><g
       transform="rotate(29.105281,323.69745,106.00843)"
       id="g278"><path
         sodipodi:nodetypes="cc"
         d="m 321.756,107.36 -9.84969,10.17315"
         style="fill:none;stroke:#231f20;stroke-width:0.7;stroke-linecap:square;stroke-linejoin:bevel;stroke-miterlimit:10;stroke-dasharray:none;stroke-opacity:1"
         id="path100" /><path
         d="m 317.04,109.196 4.68,-1.836 -1.368,4.86 z"
         style="fill:#231f20;fill-opacity:1;fill-rule:evenodd;stroke:#231f20;stroke-width:0.7;stroke-linecap:square;stroke-linejoin:bevel;stroke-miterlimit:10;stroke-dasharray:none;stroke-opacity:1"
         id="path102" /></g><path
       id="path104"
       style="fill:none;stroke:#231f20;stroke-width:0.7;stroke-linecap:square;stroke-linejoin:bevel;stroke-miterlimit:10;stroke-dasharray:none;stroke-opacity:1"
       d="M 250.152,27.476 271.5,23.804" /><path
       id="path106"
       style="fill:#231f20;fill-opacity:1;fill-rule:evenodd;stroke:#231f20;stroke-width:0.7;stroke-linecap:square;stroke-linejoin:bevel;stroke-miterlimit:10;stroke-dasharray:none;stroke-opacity:1"
       d="m 254.976,28.916 -4.824,-1.44 4.068,-2.988 z" /><path
       id="path108"
       style="fill:none;stroke:#231f20;stroke-width:0.7;stroke-linecap:square;stroke-linejoin:bevel;stroke-miterlimit:10;stroke-dasharray:none;stroke-opacity:1"
       d="m 353.292,22.94 -22.644,0.864" /><path
       id="path110"
       style="fill:#231f20;fill-opacity:1;fill-rule:evenodd;stroke:#231f20;stroke-width:0.7;stroke-linecap:square;stroke-linejoin:bevel;stroke-miterlimit:10;stroke-dasharray:none;stroke-opacity:1"
       d="m 348.684,20.852 4.572,2.088 -4.428,2.412 z" /><text
       y="-121.60645"
       x="2.1241744"
       transform="scale(0.99639641,-1.0036166)"
       style="font-variant:normal;font-weight:normal;font-size:9.97194px;font-family:Arial;-inkscape-font-specification:Arial;writing-mode:lr-tb;fill:#231f20;fill-opacity:1;fill-rule:nonzero;stroke:none;stroke-width:0.996396"
       id="text190"><tspan
         y="-121.60645"
         x="2.1241744"
         style="stroke-width:0.996396"
         sodipodi:role="line"
         id="tspan182" /><tspan
         y="-109.14152"
         x="2.1241744"
         style="stroke-width:0.996396"
         sodipodi:role="line"
         id="tspan184">polarization</tspan><tspan
         style="stroke-width:0.996396"
         x="2.1241744"
         y="-96.67659"
         sodipodi:role="line"
         id="tspan188" /></text><text
       id="text210"
       style="font-variant:normal;font-weight:normal;font-size:9.97194px;font-family:Arial;-inkscape-font-specification:Arial;writing-mode:lr-tb;fill:#231f20;fill-opacity:1;fill-rule:nonzero;stroke:none;stroke-width:0.996396"
       transform="scale(0.99639643,-1.0036166)"
       x="90.990509"
       y="-61.451668"><tspan
         id="tspan204"
         sodipodi:role="line"
         style="stroke-width:0.996396"
         x="90.990509"
         y="-61.451668" /><tspan
         id="tspan206"
         sodipodi:role="line"
         style="stroke-width:0.996396"
         x="90.990509"
         y="-48.986744">field</tspan><tspan
         id="tspan208"
         sodipodi:role="line"
         y="-36.521816"
         x="90.990509"
         style="stroke-width:0.996396" /></text><text
       id="text218"
       style="font-variant:normal;font-weight:normal;font-size:9.97194px;font-family:Arial;-inkscape-font-specification:Arial;writing-mode:lr-tb;fill:#231f20;fill-opacity:1;fill-rule:nonzero;stroke:none;stroke-width:0.996396"
       transform="scale(0.99639643,-1.0036166)"
       x="86.547188"
       y="-113.18478"><tspan
         id="tspan212"
         sodipodi:role="line"
         style="stroke-width:0.996396"
         x="86.547188"
         y="-113.18478" /><tspan
         id="tspan214"
         sodipodi:role="line"
         style="stroke-width:0.996396"
         x="86.547188"
         y="-100.71985">linear</tspan><tspan
         id="tspan216"
         sodipodi:role="line"
         y="-88.254929"
         x="86.547188"
         style="stroke-width:0.996396" /></text><text
       y="-113.18478"
       x="86.547188"
       transform="scale(0.99639643,-1.0036166)"
       style="font-variant:normal;font-weight:normal;font-size:9.97194000000000003px;font-family:Arial;-inkscape-font-specification:Arial;writing-mode:lr-tb;fill:#231f20;fill-opacity:1;fill-rule:nonzero;stroke:none;stroke-width:0.996396"
       id="text226"><tspan
         y="-113.18478"
         x="86.547188"
         style="stroke-width:0.996396"
         sodipodi:role="line"
         id="tspan220" /><tspan
         y="-100.71985"
         x="86.547188"
         style="stroke-width:0.996396"
         sodipodi:role="line"
         id="tspan222">linear</tspan><tspan
         style="stroke-width:0.996396"
         x="86.547188"
         y="-88.254929"
         sodipodi:role="line"
         id="tspan224" /></text><text
       id="text234"
       style="font-variant:normal;font-weight:normal;font-size:9.97194px;font-family:Arial;-inkscape-font-specification:Arial;writing-mode:lr-tb;fill:#231f20;fill-opacity:1;fill-rule:nonzero;stroke:none;stroke-width:0.996396"
       transform="scale(0.99639643,-1.0036166)"
       x="79.680244"
       y="-68.670227"><tspan
         id="tspan230"
         sodipodi:role="line"
         style="stroke-width:0.996396"
         x="79.680244"
         y="-68.670227">non-linear</tspan><tspan
         id="tspan232"
         sodipodi:role="line"
         y="-56.205311"
         x="79.680244"
         style="stroke-width:0.996396" /></text><text
       id="text254"
       style="font-variant:normal;font-weight:normal;font-size:9.97194px;font-family:Arial;-inkscape-font-specification:Arial;writing-mode:lr-tb;fill:#231f20;fill-opacity:1;fill-rule:nonzero;stroke:none;stroke-width:0.996396"
       transform="scale(0.99639643,-1.0036166)"
       x="257.81686"
       y="-77.492943"><tspan
         id="tspan248"
         sodipodi:role="line"
         style="stroke-width:0.996396"
         x="257.81686"
         y="-77.492943" /><tspan
         id="tspan250"
         sodipodi:role="line"
         style="stroke-width:0.996396"
         x="257.81686"
         y="-65.028015">time</tspan><tspan
         id="tspan252"
         sodipodi:role="line"
         y="-52.563087"
         x="257.81686"
         style="stroke-width:0.996396" /></text><text
       y="-121.20542"
       x="244.89085"
       transform="scale(0.99639643,-1.0036166)"
       style="font-variant:normal;font-weight:normal;font-size:9.97194px;font-family:Arial;-inkscape-font-specification:Arial;writing-mode:lr-tb;fill:#231f20;fill-opacity:1;fill-rule:nonzero;stroke:none;stroke-width:0.996396"
       id="text262"><tspan
         y="-121.20542"
         x="244.89085"
         style="stroke-width:0.996396"
         sodipodi:role="line"
         id="tspan256" /><tspan
         y="-108.74049"
         x="244.89085"
         style="stroke-width:0.996396"
         sodipodi:role="line"
         id="tspan258">incoming field</tspan><tspan
         style="stroke-width:0.996396"
         x="244.89085"
         y="-96.275574"
         sodipodi:role="line"
         id="tspan260" /></text><text
       id="text270"
       style="font-variant:normal;font-weight:normal;font-size:9.97194px;font-family:Arial;-inkscape-font-specification:Arial;writing-mode:lr-tb;fill:#231f20;fill-opacity:1;fill-rule:nonzero;stroke:none;stroke-width:0.996396"
       transform="scale(0.99639642,-1.0036166)"
       x="275.59012"
       y="-33.780468"><tspan
         id="tspan264"
         sodipodi:role="line"
         style="stroke-width:0.996396"
         x="275.59012"
         y="-33.780468" /><tspan
         id="tspan266"
         sodipodi:role="line"
         style="stroke-width:0.996396"
         x="275.59012"
         y="-21.31554">polarization</tspan><tspan
         id="tspan268"
         sodipodi:role="line"
         y="-8.8506203"
         x="275.59012"
         style="stroke-width:0.996396" /></text><text
       y="-77.474007"
       x="430.43585"
       transform="scale(0.99639643,-1.0036166)"
       style="font-variant:normal;font-weight:normal;font-size:9.97194px;font-family:Arial;-inkscape-font-specification:Arial;writing-mode:lr-tb;fill:#231f20;fill-opacity:1;fill-rule:nonzero;stroke:none;stroke-width:0.996396"
       id="text286"><tspan
         y="-77.474007"
         x="430.43585"
         style="stroke-width:0.996396"
         sodipodi:role="line"
         id="tspan280" /><tspan
         y="-65.009079"
         x="430.43585"
         style="stroke-width:0.996396"
         sodipodi:role="line"
         id="tspan282">time</tspan><tspan
         style="stroke-width:0.996396"
         x="430.43585"
         y="-52.544159"
         sodipodi:role="line"
         id="tspan284" /></text></g></svg>
