<?xml version="1.0" encoding="UTF-8" standalone="no"?>
<svg
   xmlns:dc="http://purl.org/dc/elements/1.1/"
   xmlns:cc="http://creativecommons.org/ns#"
   xmlns:rdf="http://www.w3.org/1999/02/22-rdf-syntax-ns#"
   xmlns:svg="http://www.w3.org/2000/svg"
   xmlns="http://www.w3.org/2000/svg"
   xmlns:sodipodi="http://sodipodi.sourceforge.net/DTD/sodipodi-0.dtd"
   xmlns:inkscape="http://www.inkscape.org/namespaces/inkscape"
   inkscape:version="1.0 (4035a4f, 2020-05-01)"
   sodipodi:docname="theo_nlo_shg_phasematching.svg"
   viewBox="0 0 497.33334 262.66666"
   height="262.66666"
   width="497.33334"
   xml:space="preserve"
   id="svg10"
   version="1.1"><metadata
     id="metadata16"><rdf:RDF><cc:Work
         rdf:about=""><dc:format>image/svg+xml</dc:format><dc:type
           rdf:resource="http://purl.org/dc/dcmitype/StillImage" /><dc:title></dc:title></cc:Work></rdf:RDF></metadata><defs
     id="defs14" /><sodipodi:namedview
     inkscape:current-layer="g18"
     inkscape:window-maximized="0"
     inkscape:window-y="48"
     inkscape:window-x="313"
     inkscape:cy="131.33333"
     inkscape:cx="248.66667"
     inkscape:zoom="1.5021831"
     showgrid="false"
     id="namedview12"
     inkscape:window-height="739"
     inkscape:window-width="1127"
     inkscape:pageshadow="2"
     inkscape:pageopacity="0"
     guidetolerance="10"
     gridtolerance="10"
     objecttolerance="10"
     borderopacity="1"
     bordercolor="#666666"
     pagecolor="#ffffff" /><g
     transform="matrix(1.3333333,0,0,-1.3333333,0,262.66667)"
     inkscape:label="theo_nlo_shg_phasematching"
     inkscape:groupmode="layer"
     id="g18"><path
       id="path20"
       style="fill:none;stroke:#231f20;stroke-width:1.5;stroke-linecap:round;stroke-linejoin:round;stroke-miterlimit:10;stroke-dasharray:none;stroke-opacity:1"
       d="m 12.74,149.336 3.6,-9.432 3.672,-9.252 3.564,-7.848 3.6,-5.544 3.672,-2.52 3.636,0.828 3.636,4.032 3.636,6.768 3.6,8.712 3.6,9.468 3.672,9.108 3.636,7.704 3.6,5.22 3.6,2.124 3.6,-1.224 3.672,-4.356 3.636,-7.092 3.672,-8.82 3.6,-9.468 3.564,-9 3.636,-7.416 3.636,-4.896 3.672,-1.8 3.6,1.548 3.6,4.752 3.636,7.308 3.636,8.964 3.636,9.504 3.672,8.856 3.6,7.236 3.564,4.536 3.672,1.368 3.6,-1.944 3.672,-5.076 3.636,-7.488 3.564,-9.108 3.636,-9.468 3.636,-8.784 3.636,-6.912 3.636,-4.212 3.672,-1.044 3.528,2.376 3.672,5.364 3.636,7.776 3.636,9.144 3.636,9.504 3.564,8.604 3.636,6.588 3.636,3.924 3.672,0.576 3.6,-2.628 3.672,-5.724 3.564,-7.992 3.636,-9.288 3.636,-9.396 3.636,-8.46 3.636,-6.336 3.564,-3.492 3.672,-0.288 3.6,3.06 3.672,5.976 3.636,8.208 3.636,9.36 3.564,9.396 3.636,8.208 3.636,6.048 3.636,3.204 3.672,-0.108 3.528,-3.456 3.672,-6.3 3.636,-8.352 3.636,-9.396 3.636,-9.324 3.636,-7.992 3.564,-5.832 3.636,-2.736 3.672,0.468 3.6,3.78 3.672,6.588 3.564,8.496 3.6,9.504 3.672,9.216 3.636,7.74 3.636,5.472 3.636,2.484 3.6,-0.9 3.6,-4.104 3.672,-6.84 3.636,-8.676 3.6,-9.504 3.6,-9.108 3.636,-7.596 3.636,-5.22 3.636,-2.052 3.672,1.332 3.6,4.428 3.564,7.092 3.672,8.856 3.6,9.504" /><path
       id="path22"
       style="fill:none;stroke:#231f20;stroke-width:1.001;stroke-linecap:square;stroke-linejoin:bevel;stroke-miterlimit:10;stroke-dasharray:none;stroke-opacity:1"
       d="m 12.74,114.632 v 1.224 m 10.188,-1.224 v 2.376 m 10.332,-2.376 v 1.224 m 10.224,-1.224 v 2.376 m 10.26,-2.376 v 1.224 m 10.26,-1.224 v 2.376 M 74.3,114.632 v 1.224 m 10.224,-1.224 v 2.376 m 10.224,-2.376 v 1.224 m 10.296,-1.224 v 2.376 m 10.26,-2.376 v 1.224 m 10.26,-1.224 v 2.376 m 10.224,-2.376 v 1.224 m 10.332,-1.224 v 2.376 m 10.188,-2.376 v 1.224 m 10.26,-1.224 v 2.376 m 10.296,-2.376 v 1.224 m 10.224,-1.224 v 2.376 m 10.296,-2.376 v 1.224 m 10.224,-1.224 v 2.376 m 10.332,-2.376 v 1.224 m 10.188,-1.224 v 2.376 m 10.224,-2.376 v 1.224 m 10.332,-1.224 v 2.376 m 10.224,-2.376 v 1.224 m 10.296,-1.224 v 2.376 m 10.224,-2.376 v 1.224 m 10.296,-1.224 v 2.376 m 10.224,-2.376 v 1.224 m 10.224,-1.224 v 2.376 m 10.296,-2.376 v 1.224 m 10.26,-1.224 v 2.376 m 10.26,-2.376 v 1.224 m 10.26,-1.224 v 2.376 m 10.296,-2.376 v 1.224 m 10.188,-1.224 v 2.376 M 12.74,114.632 h 358.992 m -358.992,0 h 3.132 m -3.132,13.536 h 1.584 m -1.584,13.536 h 3.132 m -3.132,13.464 h 1.584 m -1.584,13.536 h 3.132 M 12.74,182.24 h 1.584 m -1.584,13.536 h 3.132 M 12.74,114.632 v 81.144 m 0,0 v -1.224 m 10.188,1.224 v -2.34 m 10.332,2.34 v -1.224 m 10.224,1.224 v -2.34 m 10.26,2.34 v -1.224 m 10.26,1.224 v -2.34 m 10.296,2.34 v -1.224 m 10.224,1.224 v -2.34 m 10.224,2.34 v -1.224 m 10.296,1.224 v -2.34 m 10.26,2.34 v -1.224 m 10.26,1.224 v -2.34 m 10.224,2.34 v -1.224 m 10.332,1.224 v -2.34 m 10.188,2.34 v -1.224 m 10.26,1.224 v -2.34 m 10.296,2.34 v -1.224 m 10.224,1.224 v -2.34 m 10.296,2.34 v -1.224" /><path
       id="path24"
       style="fill:none;stroke:#231f20;stroke-width:1.001;stroke-linecap:square;stroke-linejoin:bevel;stroke-miterlimit:10;stroke-dasharray:none;stroke-opacity:1"
       d="m 207.608,195.776 v -2.34 m 10.332,2.34 v -1.224 m 10.188,1.224 v -2.34 m 10.224,2.34 v -1.224 m 10.332,1.224 v -2.34 m 10.224,2.34 v -1.224 m 10.296,1.224 v -2.34 m 10.224,2.34 v -1.224 m 10.296,1.224 v -2.34 m 10.224,2.34 v -1.224 m 10.224,1.224 v -2.34 m 10.296,2.34 v -1.224 m 10.26,1.224 v -2.34 m 10.26,2.34 v -1.224 m 10.26,1.224 v -2.34 m 10.296,2.34 v -1.224 m 10.188,1.224 v -2.34 m -358.992,2.34 h 358.992 m 0,-81.144 H 368.6 m 3.132,13.536 h -1.584 m 1.584,13.536 H 368.6 m 3.132,13.464 h -1.584 m 1.584,13.536 H 368.6 m 3.132,13.536 h -1.584 m 1.584,13.536 H 368.6 m 3.132,-81.144 v 81.144" /><path
       id="path26"
       style="fill:none;stroke:#231f20;stroke-width:1.5;stroke-linecap:round;stroke-linejoin:round;stroke-miterlimit:10;stroke-dasharray:none;stroke-opacity:1"
       d="m 63.392,98.288 3.6,-0.684 3.672,-2.736 3.564,-4.176 3.6,-5.364 3.672,-5.76 3.636,-5.436 3.636,-4.464 3.636,-2.952 3.672,-1.08 3.528,0.972 3.672,2.844 3.636,4.428 3.6,5.4 3.672,5.688 3.636,5.436 3.564,4.32 3.636,2.736 3.672,0.828 3.6,-1.152 3.672,-3.06 3.636,-4.572 3.636,-5.436 3.564,-5.76 3.636,-5.292 3.636,-4.176 3.636,-2.52 3.672,-0.648 3.6,1.404 3.6,3.276 3.636,4.68 3.6,5.508 3.672,5.76 3.636,5.184 3.636,3.96 3.636,2.376 3.6,0.396 3.6,-1.692 3.672,-3.348 3.636,-4.86 3.636,-5.58 3.636,-5.688 3.636,-5.076 3.564,-3.852 3.636,-2.124 3.672,-0.216 3.6,1.908 3.672,3.564 3.636,4.968 3.528,5.652 3.672,5.652 3.636,5.004 3.636,3.636 3.636,1.944 3.672,-0.144 3.6,-2.052 3.6,-3.708 3.636,-5.112 3.636,-5.688 3.636,-5.58 3.636,-4.896 3.636,-3.456 3.564,-1.728 3.672,0.36 3.6,2.232 3.672,3.96 3.636,5.184 3.636,5.688 3.636,5.616 3.564,4.716 3.636,3.276 3.636,1.44 3.672,-0.504 3.6,-2.484 3.672,-4.14 3.636,-5.256 3.528,-5.76 3.672,-5.472 3.636,-4.572 3.636,-3.132 3.636,-1.224 3.672,0.792 3.528,2.664 3.672,4.284 3.636,5.328 3.636,5.76 M 63.392,49.292 l 3.6,-0.468 3.672,-1.728 3.564,-2.808 3.6,-3.78 3.672,-4.32 3.636,-4.572 3.636,-4.5 3.636,-4.032 3.672,-3.24 3.528,-2.16 3.672,-1.008 3.636,0.324 3.6,1.656 3.672,2.7 3.636,3.672 3.564,4.248 3.636,4.644 3.672,4.464 3.6,4.104 3.672,3.348 3.636,2.268 3.636,1.116 3.564,-0.18 3.636,-1.44 3.636,-2.628 3.636,-3.564 3.672,-4.248 3.6,-4.572 3.6,-4.536 3.636,-4.176 3.6,-3.42 3.672,-2.376 3.636,-1.296 3.636,0.072 3.636,1.332 3.6,2.484 3.6,3.492 3.672,4.14 3.636,4.644 3.636,4.536 3.636,4.176 3.636,3.528 3.564,2.556 3.636,1.332 3.672,0.144 3.6,-1.224 3.672,-2.376 3.636,-3.348 3.528,-4.176 3.672,-4.536 3.636,-4.536 3.636,-4.284 3.636,-3.6 3.672,-2.7 3.6,-1.476 3.6,-0.216 3.636,1.044 3.636,2.232 3.636,3.348 3.636,3.996 3.636,4.536 3.564,4.608 3.672,4.32 3.6,3.672 3.672,2.772 3.636,1.656 3.636,0.36 3.636,-0.936 3.564,-2.124 3.636,-3.168 3.636,-4.032 3.672,-4.428 3.6,-4.608 3.672,-4.392 3.636,-3.744 3.528,-2.952 3.672,-1.692 3.636,-0.54 3.636,0.756 3.636,2.016 3.672,3.132 3.528,3.888 3.672,4.464 3.636,4.572 3.636,4.392" /><path
       id="path28"
       style="fill:none;stroke:#231f20;stroke-width:1.5;stroke-linecap:round;stroke-linejoin:round;stroke-miterlimit:10;stroke-dasharray:none;stroke-opacity:1"
       d="m 194,49.22 3.6,-1.044 3.672,-2.304 3.636,-3.276 3.636,-4.104 3.636,-4.464 3.636,-4.608 3.564,-4.284 3.636,-3.672 3.672,-2.772 3.6,-1.692 3.672,-0.324 3.636,0.936 3.528,2.196 3.672,3.132 3.636,4.068 3.636,4.464 3.636,4.572 3.672,4.356 3.6,3.744 3.6,2.88 3.636,1.8 3.636,0.504 3.636,-0.792 3.636,-2.088 3.636,-3.06 3.564,-3.96 3.672,-4.428 3.6,-4.608 3.672,-4.356 3.636,-3.888 3.636,-2.988 3.636,-1.836 3.564,-0.648 3.636,0.648 3.636,1.908 3.672,2.988 3.6,3.852 3.672,4.392 3.636,4.572 3.528,4.464 3.672,3.888 3.636,3.132 3.636,2.016 3.636,0.792 3.672,-0.504 3.528,-1.8 3.672,-2.88 3.636,-3.78 3.636,-4.392" /><path
       id="path30"
       style="fill:none;stroke:#231f20;stroke-width:1.001;stroke-linecap:square;stroke-linejoin:bevel;stroke-miterlimit:10;stroke-dasharray:none;stroke-opacity:1"
       d="M 12.524,0.332 H 371.84 m -359.316,0 v 114.3 m 0,0 H 371.84 m 0,-114.3 v 114.3" /><path
       id="path32"
       style="fill:none;stroke:#231f20;stroke-width:0.7;stroke-linecap:square;stroke-linejoin:bevel;stroke-miterlimit:10;stroke-dasharray:0.703, 1.406;stroke-dashoffset:0;stroke-opacity:1"
       d="M 61.988,195.056 63.14,191.96 V 0.224 M 193.748,196.64 193.388,0.224" /><text
       id="text40"
       style="font-variant:normal;font-weight:normal;font-size:10.008px;font-family:Arial;-inkscape-font-specification:Arial;writing-mode:lr-tb;fill:#231f20;fill-opacity:1;fill-rule:nonzero;stroke:none"
       transform="matrix(0.99280576,0,0,-1,0.392,112.94)"><tspan
         id="tspan34"
         y="0"
         x="0">0</tspan><tspan
         id="tspan36"
         y="-52.415897"
         x="2.1757393">1</tspan><tspan
         id="tspan38"
         sodipodi:role="line"
         y="-69.407478"
         x="327.87109 334.57944 337.37167 343.20935 346.00159">P ~ E</tspan></text><text
       id="text44"
       style="font-variant:normal;font-weight:normal;font-size:5.832px;font-family:Arial;-inkscape-font-specification:Arial;writing-mode:lr-tb;fill:#231f20;fill-opacity:1;fill-rule:nonzero;stroke:none"
       transform="matrix(0.98765432,0,0,-1,350.564,185.336)"><tspan
         id="tspan42"
         y="0"
         x="0">2</tspan></text><text
       id="text48"
       style="font-variant:normal;font-weight:normal;font-size:10.008px;font-family:Arial;-inkscape-font-specification:Arial;writing-mode:lr-tb;fill:#231f20;fill-opacity:1;fill-rule:nonzero;stroke:none"
       transform="matrix(0.99280576,0,0,-1,353.804,182.348)"><tspan
         id="tspan46"
         y="0"
         x="0">(</tspan></text><text
       id="text52"
       style="font-variant:normal;font-weight:normal;font-size:10.008px;font-family:Symbol;-inkscape-font-specification:Symbol;writing-mode:lr-tb;fill:#231f20;fill-opacity:1;fill-rule:nonzero;stroke:none"
       transform="matrix(1,0,0,-1,357.116,182.384)"><tspan
         id="tspan50"
         y="0"
         x="0">ω</tspan></text><text
       id="text58"
       style="font-variant:normal;font-weight:normal;font-size:10.008px;font-family:Arial;-inkscape-font-specification:Arial;writing-mode:lr-tb;fill:#231f20;fill-opacity:1;fill-rule:nonzero;stroke:none"
       transform="matrix(0.99280576,0,0,-1,363.956,182.348)"><tspan
         id="tspan54"
         y="0"
         x="0">)</tspan><tspan
         id="tspan56"
         sodipodi:role="line"
         y="80.38826"
         x="-24.729769 -18.021406 -14.68574 -9.1012754">E(2 </tspan></text><text
       id="text66"
       style="font-variant:normal;font-weight:normal;font-size:10.008px;font-family:Arial;-inkscape-font-specification:Arial;writing-mode:lr-tb;fill:#231f20;fill-opacity:1;fill-rule:nonzero;stroke:none"
       transform="matrix(0.99280576,0,0,-1,364.532,101.96)"><tspan
         id="tspan64"
         y="0"
         x="0">)</tspan></text><path
       id="path68"
       style="fill:#231f20;fill-opacity:1;fill-rule:evenodd;stroke:#231f20;stroke-width:1.001;stroke-linecap:square;stroke-linejoin:bevel;stroke-miterlimit:10;stroke-dasharray:none;stroke-opacity:1"
       d="m 63.36,171.588 c 1.947,0 3.528,-1.581 3.528,-3.528 0,-1.947 -1.581,-3.528 -3.528,-3.528 -1.947,0 -3.528,1.581 -3.528,3.528 0,1.947 1.581,3.528 3.528,3.528" /><path
       id="path70"
       style="fill:none;stroke:#231f20;stroke-width:1.001;stroke-linecap:square;stroke-linejoin:bevel;stroke-miterlimit:10;stroke-dasharray:none;stroke-opacity:1"
       d="M 66.92,177.272 H 189.392" /><path
       id="path72"
       style="fill:#231f20;fill-opacity:1;fill-rule:evenodd;stroke:none"
       d="m 68.504,180.008 v -5.436 h -0.036 l -2.7,2.7 2.7,2.736" /><path
       id="path74"
       style="fill:#231f20;fill-opacity:1;fill-rule:evenodd;stroke:#231f20;stroke-width:1.001;stroke-linecap:square;stroke-linejoin:bevel;stroke-miterlimit:10;stroke-dasharray:none;stroke-opacity:1"
       d="m 68,179.54 -4.5,-2.268 4.5,-2.232 -2.232,2.232 z" /><path
       id="path76"
       style="fill:#231f20;fill-opacity:1;fill-rule:evenodd;stroke:none"
       d="m 187.808,180.008 v -5.436 h 0.072 l 2.7,2.7 -2.7,2.736" /><path
       id="path78"
       style="fill:#231f20;fill-opacity:1;fill-rule:evenodd;stroke:#231f20;stroke-width:1.001;stroke-linecap:square;stroke-linejoin:bevel;stroke-miterlimit:10;stroke-dasharray:none;stroke-opacity:1"
       d="m 188.312,179.54 4.5,-2.268 -4.5,-2.232 2.268,2.232 z" /><path
       id="path96"
       style="fill:none;stroke:#231f20;stroke-width:1.001;stroke-linecap:square;stroke-linejoin:bevel;stroke-miterlimit:10;stroke-dasharray:none;stroke-opacity:1"
       d="M 66.632,107.864 H 189.068" /><path
       id="path98"
       style="fill:#231f20;fill-opacity:1;fill-rule:evenodd;stroke:none"
       d="m 68.18,110.6 v -5.436 h -0.036 l -2.7,2.7 2.7,2.736" /><path
       id="path100"
       style="fill:#231f20;fill-opacity:1;fill-rule:evenodd;stroke:#231f20;stroke-width:1.001;stroke-linecap:square;stroke-linejoin:bevel;stroke-miterlimit:10;stroke-dasharray:none;stroke-opacity:1"
       d="m 67.676,110.132 -4.464,-2.268 4.464,-2.232 -2.232,2.232 z" /><path
       id="path102"
       style="fill:#231f20;fill-opacity:1;fill-rule:evenodd;stroke:none"
       d="m 187.52,110.6 v -5.436 h 0.036 l 2.7,2.7 -2.7,2.736" /><path
       id="path104"
       style="fill:#231f20;fill-opacity:1;fill-rule:evenodd;stroke:#231f20;stroke-width:1.001;stroke-linecap:square;stroke-linejoin:bevel;stroke-miterlimit:10;stroke-dasharray:none;stroke-opacity:1"
       d="m 187.988,110.132 4.5,-2.268 -4.5,-2.232 2.268,2.232 z" /><path
       id="path106"
       style="fill:none;stroke:#231f20;stroke-width:1.001;stroke-linecap:square;stroke-linejoin:bevel;stroke-miterlimit:10;stroke-dasharray:none;stroke-opacity:1"
       d="m 68.504,55.376 h 152.46" /><path
       id="path108"
       style="fill:#231f20;fill-opacity:1;fill-rule:evenodd;stroke:none"
       d="m 70.088,58.112 v -5.436 h -0.036 l -2.7,2.7 2.7,2.736" /><path
       id="path110"
       style="fill:#231f20;fill-opacity:1;fill-rule:evenodd;stroke:#231f20;stroke-width:1.001;stroke-linecap:square;stroke-linejoin:bevel;stroke-miterlimit:10;stroke-dasharray:none;stroke-opacity:1"
       d="m 69.584,57.644 -4.5,-2.268 4.5,-2.232 -2.232,2.232 z" /><path
       id="path112"
       style="fill:#231f20;fill-opacity:1;fill-rule:evenodd;stroke:none"
       d="M 219.38,58.112 V 52.64 h 0.036 l 2.7,2.736 -2.7,2.736" /><path
       id="path114"
       style="fill:#231f20;fill-opacity:1;fill-rule:evenodd;stroke:#231f20;stroke-width:1.001;stroke-linecap:square;stroke-linejoin:bevel;stroke-miterlimit:10;stroke-dasharray:none;stroke-opacity:1"
       d="m 219.884,57.644 4.5,-2.268 -4.5,-2.232 2.232,2.232 z" /><path
       id="path132"
       style="fill:#231f20;fill-opacity:1;fill-rule:evenodd;stroke:#231f20;stroke-width:1.001;stroke-linecap:square;stroke-linejoin:bevel;stroke-miterlimit:10;stroke-dasharray:none;stroke-opacity:1"
       d="m 63.36,101.448 c 1.947,0 3.528,-1.581 3.528,-3.528 0,-1.947 -1.581,-3.528 -3.528,-3.528 -1.947,0 -3.528,1.581 -3.528,3.528 0,1.947 1.581,3.528 3.528,3.528" /><path
       id="path134"
       style="fill:#231f20;fill-opacity:1;fill-rule:evenodd;stroke:#231f20;stroke-width:1.001;stroke-linecap:square;stroke-linejoin:bevel;stroke-miterlimit:10;stroke-dasharray:none;stroke-opacity:1"
       d="m 63.36,51.948 c 1.947,0 3.528,-1.581 3.528,-3.528 0,-1.947 -1.581,-3.528 -3.528,-3.528 -1.947,0 -3.528,1.581 -3.528,3.528 0,1.947 1.581,3.528 3.528,3.528" /><path
       id="path136"
       style="fill:#231f20;fill-opacity:1;fill-rule:evenodd;stroke:#231f20;stroke-width:1.001;stroke-linecap:square;stroke-linejoin:bevel;stroke-miterlimit:10;stroke-dasharray:none;stroke-opacity:1"
       d="m 193.02,52.548 c 1.947,0 3.528,-1.581 3.528,-3.528 0,-1.947 -1.581,-3.528 -3.528,-3.528 -1.947,0 -3.528,1.581 -3.528,3.528 0,1.947 1.581,3.528 3.528,3.528" /><path
       id="path138"
       style="fill:#231f20;fill-opacity:1;fill-rule:evenodd;stroke:#231f20;stroke-width:1.001;stroke-linecap:square;stroke-linejoin:bevel;stroke-miterlimit:10;stroke-dasharray:none;stroke-opacity:1"
       d="m 193.02,101.448 c 1.947,0 3.528,-1.581 3.528,-3.528 0,-1.947 -1.581,-3.528 -3.528,-3.528 -1.947,0 -3.528,1.581 -3.528,3.528 0,1.947 1.581,3.528 3.528,3.528" /><path
       id="path140"
       style="fill:#231f20;fill-opacity:1;fill-rule:evenodd;stroke:#231f20;stroke-width:1.001;stroke-linecap:square;stroke-linejoin:bevel;stroke-miterlimit:10;stroke-dasharray:none;stroke-opacity:1"
       d="m 193.02,171.588 c 1.947,0 3.528,-1.581 3.528,-3.528 0,-1.947 -1.581,-3.528 -3.528,-3.528 -1.947,0 -3.528,1.581 -3.528,3.528 0,1.947 1.581,3.528 3.528,3.528" /><text
       id="text160"
       style="font-variant:normal;font-weight:normal;font-size:10.008px;font-family:Arial;-inkscape-font-specification:Arial;writing-mode:lr-tb;fill:#231f20;fill-opacity:1;fill-rule:nonzero;stroke:none"
       transform="matrix(0.99280576,0,0,-1,19.364,94.364)"><tspan
         id="tspan158"
         y="0"
         x="0">n</tspan></text><text
       id="text164"
       style="font-variant:normal;font-weight:normal;font-size:5.832px;font-family:Arial;-inkscape-font-specification:Arial;writing-mode:lr-tb;fill:#231f20;fill-opacity:1;fill-rule:nonzero;stroke:none"
       transform="matrix(0.98765432,0,0,-1,24.908,92.096)"><tspan
         id="tspan162"
         y="0"
         x="0">1</tspan></text><text
       id="text168"
       style="font-variant:normal;font-weight:normal;font-size:10.008px;font-family:Arial;-inkscape-font-specification:Arial;writing-mode:lr-tb;fill:#231f20;fill-opacity:1;fill-rule:nonzero;stroke:none"
       transform="matrix(0.99280576,0,0,-1,30.920144,94.364)"><tspan
         id="tspan166"
         sodipodi:role="line"
         y="0"
         x="0 5.8746958 8.6669283">= n</tspan></text><text
       id="text172"
       style="font-variant:normal;font-weight:normal;font-size:5.832px;font-family:Arial;-inkscape-font-specification:Arial;writing-mode:lr-tb;fill:#231f20;fill-opacity:1;fill-rule:nonzero;stroke:none"
       transform="matrix(0.98765432,0,0,-1,45.032,92.096)"><tspan
         id="tspan170"
         y="0"
         x="0">2</tspan></text><text
       id="text176"
       style="font-variant:normal;font-weight:normal;font-size:10.008px;font-family:Arial;-inkscape-font-specification:Arial;writing-mode:lr-tb;fill:#231f20;fill-opacity:1;fill-rule:nonzero;stroke:none"
       transform="matrix(0.99280576,0,0,-1,18.428,44.648)"><tspan
         id="tspan174"
         y="0"
         x="0">n</tspan></text><text
       id="text180"
       style="font-variant:normal;font-weight:normal;font-size:5.832px;font-family:Arial;-inkscape-font-specification:Arial;writing-mode:lr-tb;fill:#231f20;fill-opacity:1;fill-rule:nonzero;stroke:none"
       transform="matrix(0.98765432,0,0,-1,23.972,42.416)"><tspan
         id="tspan178"
         y="0"
         x="0">1</tspan></text><text
       id="text184"
       style="font-variant:normal;font-weight:normal;font-size:10.008px;font-family:Arial;-inkscape-font-specification:Arial;writing-mode:lr-tb;fill:#231f20;fill-opacity:1;fill-rule:nonzero;stroke:none"
       transform="matrix(0.99280576,0,0,-1,29.984144,44.648)"><tspan
         id="tspan182"
         sodipodi:role="line"
         y="0"
         x="0 5.8746958 8.6669283">&lt; n</tspan></text><text
       id="text188"
       style="font-variant:normal;font-weight:normal;font-size:5.832px;font-family:Arial;-inkscape-font-specification:Arial;writing-mode:lr-tb;fill:#231f20;fill-opacity:1;fill-rule:nonzero;stroke:none"
       transform="matrix(0.98765432,0,0,-1,44.096,42.416)"><tspan
         id="tspan186"
         y="0"
         x="0">2</tspan></text><text
       y="-102.00099"
       x="356.61673"
       transform="scale(1,-1)"
       style="font-variant:normal;font-weight:normal;font-size:10.008px;font-family:Symbol;-inkscape-font-specification:Symbol;writing-mode:lr-tb;fill:#231f20;fill-opacity:1;fill-rule:nonzero;stroke:none"
       id="text485"><tspan
         x="356.61673"
         y="-102.00099"
         id="tspan483">ω</tspan></text><text
       transform="scale(1,-1)"
       id="text489"
       y="-181.52254"
       x="101.85177"
       style="font-size:9px;line-height:1.25;font-family:sans-serif;text-align:end;text-anchor:end;stroke-width:0.75"
       xml:space="preserve"><tspan
         style="stroke-width:0.75"
         y="-181.52254"
         x="101.85177"
         id="tspan487"
         sodipodi:role="line">n<tspan
   id="tspan493"
   style="font-size:65%;baseline-shift:sub">1</tspan> λ<tspan
   id="tspan491"
   style="font-size:65%;baseline-shift:sub">1</tspan></tspan></text><text
       xml:space="preserve"
       style="font-size:9px;line-height:1.25;font-family:sans-serif;text-align:end;text-anchor:end;stroke-width:0.75"
       x="107.34378"
       y="-98.143883"
       id="text501"
       transform="scale(1,-1)"><tspan
         sodipodi:role="line"
         id="tspan499"
         x="107.34378"
         y="-98.143883"
         style="stroke-width:0.75">2 n<tspan
   style="font-size:65%;baseline-shift:sub"
   id="tspan495">2</tspan> λ<tspan
   style="font-size:65%;baseline-shift:sub"
   id="tspan497">2</tspan></tspan></text><text
       transform="scale(1,-1)"
       id="text509"
       y="-45.720181"
       x="110.83869"
       style="font-size:9px;line-height:1.25;font-family:sans-serif;text-align:end;text-anchor:end;stroke-width:0.75"
       xml:space="preserve"><tspan
         style="stroke-width:0.75"
         y="-45.720181"
         x="110.83869"
         id="tspan507"
         sodipodi:role="line">2 n<tspan
   id="tspan503"
   style="font-size:65%;baseline-shift:sub">2</tspan> λ<tspan
   id="tspan505"
   style="font-size:65%;baseline-shift:sub">2</tspan></tspan></text></g></svg>
